<svg width="20" height="20" viewBox="0 0 20 20" fill="none" xmlns="http://www.w3.org/2000/svg">
<g clip-path="url(#clip0)">
<path d="M7.21526 18.3465C6.06186 18.3465 5.1267 17.4114 5.1267 16.258L5.12671 2.62254L7.8766 5.37244L8.86105 4.38799L4.92275 0.449682C4.6508 0.177905 4.21024 0.177905 3.9383 0.449682L-9.7178e-06 4.38799L0.984439 5.37244L3.73434 2.62254L3.73433 16.258C3.73671 18.1795 5.29378 19.7365 7.21526 19.7389L10 19.7389L10 18.3465L7.21526 18.3465Z" fill="#343234"/>
<path d="M12.7847 1.63822C13.9383 1.63822 14.8733 2.57321 14.8733 3.72677L14.8733 17.3622L12.1234 14.6123L11.1389 15.5968L15.0772 19.5351C15.3492 19.8068 15.7897 19.8068 16.0617 19.5351L20 15.5968L19.0156 14.6123L16.2657 17.3622L16.2657 3.72677C16.2634 1.8053 14.7062 0.248059 12.7847 0.245849L9.99999 0.245849L9.99999 1.63822L12.7847 1.63822Z" fill="#343234"/>
</g>
<defs>
<clipPath id="clip0">
<rect width="20" height="20" fill="white" transform="translate(20) rotate(90)"/>
</clipPath>
</defs>
</svg>
