<svg width="20" height="20" viewBox="0 0 20 20" fill="none" xmlns="http://www.w3.org/2000/svg">
<path d="M15.505 0H4.49629C3.43539 0 2.57227 0.863125 2.57227 1.92402V18.076C2.57227 19.1369 3.43539 20 4.49629 20H15.505C16.5659 20 17.429 19.1369 17.429 18.076V1.92402C17.429 0.863125 16.5659 0 15.505 0ZM5.20934 3.32406C5.20934 3.00047 5.47168 2.73813 5.79527 2.73813H14.2059C14.5295 2.73813 14.7919 3.00047 14.7919 3.32406V4.48102C14.7919 4.80461 14.5295 5.06695 14.2059 5.06695H5.79527C5.47168 5.06695 5.20934 4.80461 5.20934 4.48102V3.32406ZM7.18203 16.4811C7.18203 16.8047 6.91969 17.067 6.59609 17.067H5.79531C5.47172 17.067 5.20937 16.8047 5.20937 16.4811V15.9259C5.20937 15.6023 5.47172 15.34 5.79531 15.34H6.59609C6.91969 15.34 7.18203 15.6023 7.18203 15.9259V16.4811ZM7.18203 13.0135C7.18203 13.3371 6.91969 13.5995 6.59609 13.5995H5.79531C5.47172 13.5995 5.20937 13.3371 5.20937 13.0135V12.4584C5.20937 12.1348 5.47172 11.8724 5.79531 11.8724H6.59609C6.91969 11.8724 7.18203 12.1348 7.18203 12.4584V13.0135ZM11.035 16.4811C11.035 16.8047 10.7726 17.067 10.449 17.067H9.64824C9.32461 17.067 9.0623 16.8047 9.0623 16.4811V15.9259C9.0623 15.6023 9.32461 15.34 9.64824 15.34H10.449C10.7726 15.34 11.035 15.6023 11.035 15.9259V16.4811ZM11.035 13.0135C11.035 13.3371 10.7726 13.5995 10.449 13.5995H9.64824C9.32461 13.5995 9.0623 13.3371 9.0623 13.0135V12.4584C9.0623 12.1348 9.32461 11.8724 9.64824 11.8724H10.449C10.7726 11.8724 11.035 12.1348 11.035 12.4584V13.0135ZM11.035 9.5459C11.035 9.86953 10.7726 10.1318 10.449 10.1318H5.79527C5.47168 10.1318 5.20934 9.86949 5.20934 9.5459V8.99074C5.20934 8.66715 5.47168 8.4048 5.79527 8.4048H10.449C10.7726 8.4048 11.035 8.66715 11.035 8.99074V9.5459ZM14.8879 16.4811C14.8879 16.8047 14.6255 17.067 14.302 17.067H13.5012C13.1776 17.067 12.9152 16.8047 12.9152 16.4811V15.9259C12.9152 15.6023 13.1776 15.34 13.5012 15.34H14.302C14.6255 15.34 14.8879 15.6023 14.8879 15.9259V16.4811ZM14.8879 13.0135C14.8879 13.3371 14.6255 13.5995 14.302 13.5995H13.5012C13.1776 13.5995 12.9152 13.3371 12.9152 13.0135V12.4584C12.9152 12.1348 13.1776 11.8724 13.5012 11.8724H14.302C14.6255 11.8724 14.8879 12.1348 14.8879 12.4584V13.0135ZM14.8879 9.5459C14.8879 9.86953 14.6255 10.1318 14.302 10.1318H13.5012C13.1776 10.1318 12.9152 9.86949 12.9152 9.5459V8.99074C12.9152 8.66715 13.1776 8.4048 13.5012 8.4048H14.302C14.6255 8.4048 14.8879 8.66715 14.8879 8.99074V9.5459Z" fill="#765CF3"/>
</svg>
