<svg width="20" height="20" viewBox="0 0 20 20" fill="none" xmlns="http://www.w3.org/2000/svg">
<path d="M16.25 18.3333C16.9404 18.3333 17.5 17.7736 17.5 17.0833C17.5 16.3929 16.9404 15.8333 16.25 15.8333C15.5596 15.8333 15 16.3929 15 17.0833C15 17.7736 15.5596 18.3333 16.25 18.3333Z" stroke="#343234" stroke-width="1.5" stroke-linecap="round" stroke-linejoin="round"/>
<path d="M7.91602 18.3333C8.60637 18.3333 9.16602 17.7736 9.16602 17.0833C9.16602 16.3929 8.60637 15.8333 7.91602 15.8333C7.22566 15.8333 6.66602 16.3929 6.66602 17.0833C6.66602 17.7736 7.22566 18.3333 7.91602 18.3333Z" stroke="#343234" stroke-width="1.5" stroke-linecap="round" stroke-linejoin="round"/>
<path d="M4.16602 3.33341H18.3327L16.666 12.5001H5.83268L4.16602 3.33341ZM4.16602 3.33341C4.02713 2.77786 3.33268 1.66675 1.66602 1.66675" stroke="#343234" stroke-width="1.5" stroke-linecap="round" stroke-linejoin="round"/>
<path d="M16.6673 12.5H5.83398H4.35963C2.8727 12.5 2.08398 13.151 2.08398 14.1667C2.08398 15.1823 2.8727 15.8333 4.35963 15.8333H16.2507" stroke="#343234" stroke-width="1.5" stroke-linecap="round" stroke-linejoin="round"/>
</svg>
