<svg width="20" height="20" viewBox="0 0 20 20" fill="none" xmlns="http://www.w3.org/2000/svg">
<path d="M9.99818 4.62731L9.33524 3.90529C8.45953 2.95154 7.06725 1.80918 5.57455 1.80918C4.15894 1.80918 3.00557 2.31795 2.20456 3.14983C1.40116 3.98421 0.9 5.19882 0.9 6.698C0.9 9.96737 3.35253 12.1292 6.18391 14.5431L6.18427 14.5434L6.23465 14.5864C7.50675 15.6721 8.89699 16.8585 9.97607 18.188L9.27727 18.7552M9.99818 4.62731L10.0182 18.191H9.97921C9.97805 18.19 9.97647 18.1885 9.97462 18.1863L9.27727 18.7552M9.99818 4.62731L10.6611 3.90529C11.5361 2.95231 12.9322 1.80918 14.4264 1.80918C15.8414 1.80918 16.9946 2.3179 17.7955 3.14979C18.5988 3.98418 19.1 5.19882 19.1 6.698C19.1 9.96815 16.646 12.1298 13.8154 14.543C13.8153 14.543 13.8153 14.5431 13.8152 14.5431L13.7974 14.5583C12.5147 15.6513 11.1118 16.8468 10.0221 18.187L9.99818 4.62731ZM9.27727 18.7552C9.45091 18.968 9.70545 19.091 9.97273 19.091H10.0255C10.2936 19.091 10.5473 18.9671 10.72 18.7552L5.57455 0.90918C2.29182 0.90918 0 3.28997 0 6.698C0 10.4532 2.84636 12.8803 5.6 15.228L5.61884 15.2441C6.91299 16.3486 8.25044 17.4901 9.27727 18.7552Z" stroke="#343234" stroke-width="1.8"/>
</svg>
