<svg width="228" height="50" viewBox="0 0 228 50" fill="none" xmlns="http://www.w3.org/2000/svg">
<g clip-path="url(#clip0)">
<path d="M0.0301936 12.4414C0.0301936 8.58318 0.0301936 4.72568 0.0301936 0.868859C0.0301936 -0.104953 0.101861 -0.160541 0.959828 0.271807C6.81748 3.2104 12.6717 6.15037 18.5225 9.0917C19.0427 9.347 19.5873 9.53846 20.0399 9.88228C21.0637 10.6358 21.9728 10.399 23.0171 9.86581C29.24 6.68291 35.4894 3.56177 41.7306 0.424158C41.9252 0.327395 42.1279 0.245043 42.3163 0.133868C42.7749 -0.135835 42.9551 0.00416317 42.9551 0.520922C42.9551 3.69353 42.9429 6.8682 42.9551 10.0408C42.9551 10.607 42.5948 10.7737 42.1934 10.9734C36.288 13.9299 30.3846 16.8884 24.4833 19.8489C23.7502 20.2154 23.0049 20.5572 22.2902 20.9545C22.0588 21.0984 21.7932 21.177 21.5212 21.1821C21.2491 21.1872 20.9808 21.1185 20.7443 20.9833C17.7403 19.4557 14.7221 17.9487 11.7059 16.4375C10.852 16.0093 10.8275 16.0257 10.8213 16.9769C10.7988 19.6266 10.8008 19.6204 13.1536 20.7939C15.6865 22.056 18.2195 23.3139 20.7299 24.6048C20.9574 24.7401 21.2165 24.8125 21.4808 24.8146C21.7451 24.8168 22.0053 24.7487 22.2349 24.6171C28.1049 21.6469 33.9748 18.6891 39.8448 15.7437C40.6208 15.3546 41.4378 15.0334 42.1811 14.5887C42.9244 14.144 42.9429 14.494 42.9429 15.0869C42.9347 19.3281 42.9347 23.5692 42.9429 27.8103C42.9429 31.3412 42.9183 34.8699 42.9429 38.3987C42.9429 39.1316 42.7053 39.4961 42.0398 39.8255C35.3809 43.1305 28.7301 46.463 22.0875 49.823C21.9032 49.9322 21.6932 49.9898 21.4794 49.9898C21.2655 49.9898 21.0555 49.9322 20.8712 49.823C14.2655 46.5097 7.65292 43.2053 1.03354 39.9099C0.273864 39.5331 -0.0189501 39.0864 0.00971703 38.2237C0.0711466 35.3249 0.0322412 32.4241 0.0342889 29.5232C0.0342889 28.6853 0.105957 28.6421 0.85335 29.0147C7.46727 32.3225 14.0778 35.6365 20.6849 38.9566C21.1824 39.2058 21.6145 39.3128 22.1407 39.0452C25.245 37.4709 28.3567 35.9103 31.476 34.3635C31.99 34.1102 32.2295 33.7994 32.2029 33.227C32.1702 32.5714 32.1702 31.9145 32.2029 31.2588C32.2439 30.5506 31.9981 30.4538 31.4043 30.7606C29.3935 31.79 27.3725 32.807 25.3515 33.822C24.258 34.3717 23.1564 34.9111 22.0629 35.469C21.8845 35.5678 21.6837 35.6187 21.4801 35.6168C21.2764 35.615 21.0766 35.5606 20.8999 35.4587C14.1399 32.0562 7.37785 28.6695 0.613775 25.2986C0.0936708 25.0392 0.01586 24.6809 0.01586 24.1806C0.0363365 20.2669 0.0301936 16.3551 0.0301936 12.4414Z" fill="#775EF2"/>
<path d="M113.317 21.9221C113.317 17.7921 113.336 13.6601 113.299 9.53016C113.299 8.76428 113.524 8.56252 114.271 8.5687C118.451 8.6037 122.63 8.51517 126.805 8.60987C130.153 8.68399 133.28 9.52604 135.708 12.0584C137.668 14.1027 138.292 16.6124 138.151 19.363C138.079 21.3459 137.352 23.2481 136.085 24.7694C135.496 25.4928 134.778 26.0995 133.968 26.5585C133.261 26.9497 133.339 27.2749 133.734 27.8452C135.244 30.0193 136.712 32.2222 138.192 34.4169C138.342 34.6372 138.622 34.8719 138.503 35.1231C138.385 35.3743 138.01 35.2693 137.75 35.2693C135.129 35.2693 132.506 35.2693 129.885 35.2857C129.656 35.303 129.428 35.254 129.227 35.1445C129.025 35.035 128.859 34.8696 128.748 34.6681C127.602 32.9099 126.428 31.1681 125.267 29.414C124.764 28.6543 123.406 28.2261 122.56 28.5638C122.204 28.7058 122.298 29.0085 122.298 29.2596C122.298 30.9828 122.266 32.7081 122.298 34.4313C122.315 35.0757 122.118 35.2919 121.465 35.2837C119.008 35.2507 116.551 35.2507 114.093 35.2837C113.479 35.2837 113.297 35.0943 113.301 34.4849C113.321 30.2993 113.301 26.1138 113.301 21.9262L113.317 21.9221ZM122.292 18.7062C122.292 19.5297 122.292 20.3533 122.292 21.1768C122.292 21.5556 122.374 21.8294 122.822 21.8191C124.104 21.7944 125.392 21.92 126.666 21.7224C128.204 21.4835 129.041 20.5262 129.152 18.9327C129.254 17.4257 128.537 16.3448 127.104 15.8918C125.671 15.4389 124.178 15.7374 122.712 15.686C122.347 15.6716 122.302 15.9598 122.302 16.2583C122.296 17.0654 122.294 17.8848 122.292 18.7062Z" fill="#785EF2"/>
<path d="M222.901 35.2673C221.453 35.2673 220.005 35.2487 218.558 35.2673C218.343 35.2859 218.127 35.2465 217.933 35.1531C217.738 35.0597 217.572 34.9157 217.452 34.7361C215.634 32.282 213.804 29.8355 211.962 27.3965C211.831 27.2215 211.688 27.0568 211.553 26.8859C211.321 26.5894 211.086 26.5215 210.84 26.8694C210.814 26.9177 210.782 26.9621 210.744 27.0012C209.38 28.0532 209.001 29.447 209.169 31.1188C209.282 32.2305 209.169 33.3608 209.2 34.4828C209.214 35.0223 209.085 35.2775 208.479 35.2714C206.048 35.2446 203.618 35.2508 201.187 35.2714C200.669 35.2714 200.467 35.117 200.465 34.5673C200.452 26.1413 200.426 17.7153 200.387 9.28932C200.387 8.75609 200.569 8.5708 201.101 8.57492C203.559 8.59345 206.016 8.59963 208.473 8.57492C209.087 8.57492 209.196 8.80551 209.192 9.34697C209.169 11.9452 209.179 14.5454 209.192 17.1436C209.192 17.3763 209.063 17.7057 209.306 17.8251C209.622 17.9775 209.773 17.6192 209.941 17.436C212.302 14.8213 214.669 12.2149 216.995 9.56932C217.593 8.88992 218.191 8.53992 219.147 8.56051C221.631 8.63668 224.119 8.58315 226.603 8.59139C226.861 8.59139 227.217 8.45345 227.348 8.75198C227.479 9.0505 227.143 9.23785 226.973 9.4252C225.149 11.4572 223.308 13.4749 221.471 15.4966C220.204 16.8822 218.957 18.3048 217.665 19.6657C217.184 20.1701 217.223 20.5324 217.616 21.0533C220.9 25.4097 224.176 29.7751 227.444 34.1493C227.477 34.1946 227.52 34.2317 227.547 34.277C227.709 34.5549 228.116 34.8081 227.997 35.1005C227.858 35.4402 227.408 35.257 227.098 35.2611C225.688 35.2755 224.293 35.2673 222.901 35.2673Z" fill="#785EF2"/>
<path d="M87.7272 21.9283C87.7272 17.7963 87.7416 13.6643 87.7129 9.53227C87.7129 8.83227 87.8849 8.58316 88.6262 8.58522C95.2101 8.6113 101.793 8.6113 108.376 8.58522C109.078 8.58522 109.254 8.81374 109.238 9.47668C109.198 11.1718 109.198 12.8675 109.238 14.564C109.254 15.231 109.019 15.404 108.388 15.3998C104.727 15.3751 101.068 15.3998 97.4086 15.371C96.6243 15.371 96.4318 15.651 96.4298 16.3716C96.4298 18.556 96.4031 18.556 98.547 18.556C101.332 18.556 104.119 18.5704 106.906 18.5436C107.504 18.5436 107.725 18.696 107.708 19.3239C107.667 20.971 107.671 22.618 107.708 24.2486C107.721 24.8374 107.504 24.9938 106.951 24.9897C103.754 24.9691 100.558 24.9897 97.3635 24.965C96.6489 24.965 96.3663 25.1709 96.4318 25.8956C96.4851 26.4956 96.4851 27.0991 96.4318 27.6991C96.3786 28.3167 96.61 28.5103 97.2181 28.5C99.1286 28.4712 101.041 28.4897 102.952 28.4897C104.946 28.4897 106.94 28.5103 108.933 28.4897C109.611 28.4794 109.838 28.7141 109.821 29.3976C109.778 31.0652 109.783 32.7349 109.821 34.4046C109.836 35.0223 109.656 35.2878 109.002 35.2858C102.147 35.2721 95.2906 35.2721 88.4337 35.2858C87.7395 35.2858 87.7149 34.9378 87.717 34.4129C87.7293 30.2541 87.717 26.0953 87.717 21.9365L87.7272 21.9283Z" fill="#785EF2"/>
<path d="M194.066 35.2673C192.866 35.2673 191.662 35.2323 190.464 35.2797C189.784 35.3064 189.42 35.1026 189.209 34.4212C188.863 33.3012 188.39 32.2203 188.009 31.1127C187.841 30.635 187.575 30.4127 187.049 30.4168C184.156 30.4333 181.262 30.4333 178.367 30.4168C177.834 30.4168 177.589 30.6577 177.425 31.1333C177.015 32.2924 176.573 33.435 176.166 34.5941C176.115 34.807 175.989 34.9939 175.811 35.1195C175.633 35.2451 175.415 35.3006 175.199 35.2756C172.66 35.255 170.121 35.2591 167.582 35.2756C167.015 35.2756 166.763 35.2159 167.064 34.5468C170.152 27.5057 173.223 20.4584 176.278 13.4049C176.892 12.007 177.507 10.6111 178.082 9.20293C178.14 9.00859 178.264 8.84063 178.431 8.72792C178.599 8.6152 178.801 8.56477 179.002 8.58529C181.514 8.60793 184.026 8.60176 186.537 8.58529C187 8.58529 187.245 8.70882 187.45 9.18028C190.194 15.5337 192.956 21.879 195.737 28.2159C196.642 30.2912 197.553 32.3624 198.469 34.4294C198.79 35.1582 198.729 35.2653 197.912 35.2715C196.634 35.2715 195.346 35.2673 194.066 35.2673ZM182.835 17.6749L182.593 17.6584C181.835 19.6129 181.079 21.5653 180.322 23.5157C180.212 23.8019 180.251 23.9975 180.617 23.9975C182.01 23.9975 183.4 23.9975 184.792 23.9975C185.132 23.9975 185.23 23.8431 185.11 23.5322C184.352 21.5791 183.594 19.6266 182.835 17.6749Z" fill="#785EF2"/>
<path d="M73.7304 7.61749C76.9698 7.67513 80.1232 8.15277 83.1025 9.53423C83.6738 9.79981 83.8192 10.1045 83.5817 10.6686C82.8609 12.3774 82.1381 14.0862 81.4583 15.8156C81.2249 16.4106 80.9525 16.4744 80.414 16.1841C77.9875 14.8706 75.4095 14.1995 72.6329 14.4156C72.17 14.4477 71.7154 14.5562 71.2876 14.7368C70.7163 14.9777 70.3457 15.3997 70.3477 16.0503C70.3498 16.7009 70.8064 17.0488 71.3326 17.2238C72.1824 17.4998 73.0464 17.7294 73.9209 17.9115C75.946 18.3521 77.9957 18.7082 79.9266 19.4803C82.1586 20.3717 84.0219 21.7244 84.6608 24.197C85.6683 28.0428 84.11 31.724 80.7559 33.6675C77.6722 35.4483 74.3058 35.7777 70.8699 35.5533C67.9847 35.366 65.1365 34.8719 62.4622 33.6778C62.1633 33.546 61.8643 33.4163 61.5756 33.266C61.1661 33.0601 61.0616 32.7348 61.2521 32.3087C62.0363 30.5669 62.839 28.8334 63.5864 27.0752C63.8444 26.4699 64.1003 26.4802 64.6286 26.7602C67.5745 28.3568 70.917 29.0618 74.2526 28.7902C74.6861 28.74 75.1044 28.5998 75.4812 28.3784C76.3494 27.9028 76.2613 26.7952 75.2969 26.2949C74.2219 25.739 73.0158 25.5805 71.8548 25.2943C69.6884 24.7632 67.4913 24.3493 65.4579 23.3632C60.2979 20.8576 60.5436 14.3312 63.5761 11.1648C65.4088 9.25629 67.7206 8.31748 70.2904 7.91601C71.4432 7.73484 72.5715 7.53514 73.7304 7.61749Z" fill="#785EF2"/>
<path d="M154.528 24.0221C155.384 22.3648 155.941 20.7692 156.594 19.2189C158.006 15.8768 159.4 12.5299 160.778 9.17819C160.962 8.73349 161.246 8.57496 161.722 8.57702C164.179 8.59349 166.636 8.59349 169.093 8.57702C169.685 8.57702 169.8 8.7376 169.56 9.29966C167.897 13.2114 166.263 17.1231 164.615 21.0348C162.713 25.5642 160.796 30.0688 158.914 34.5961C158.709 35.0861 158.46 35.2693 157.95 35.2652C155.465 35.2488 152.981 35.2488 150.498 35.2652C150.031 35.2652 149.755 35.1355 149.563 34.6743C146.013 26.2333 142.457 17.7977 138.892 9.3676C138.62 8.72937 138.72 8.56261 139.404 8.56672C142.078 8.58937 144.755 8.59967 147.429 8.56672C148.058 8.56672 148.357 8.7829 148.578 9.33671C149.851 12.5279 151.147 15.719 152.44 18.8978C153.111 20.5592 153.791 22.2166 154.528 24.0221Z" fill="#785EF2"/>
</g>
<defs>
<clipPath id="clip0">
<rect width="228" height="50" fill="white"/>
</clipPath>
</defs>
</svg>
